<svg id="eNDTw6iBG891" xmlns="http://www.w3.org/2000/svg" xmlns:xlink="http://www.w3.org/1999/xlink" viewBox="0 0 1200 1200" shape-rendering="geometricPrecision" text-rendering="geometricPrecision"><line x1="-100.482479" y1="0" x2="100.482479" y2="0" transform="translate(600.252953 198.393965)" fill="none" stroke="#3f5787" stroke-width="3"/><line x1="-150.053836" y1="-399.250382" x2="150.053836" y2="399.250383" transform="translate(848.109735 600.323881)" fill="none" stroke="#3f5787" stroke-width="3"/><line x1="151.393602" y1="-400.59015" x2="-151.393601" y2="400.590149" transform="translate(351.056406 596.304582)" fill="none" stroke="#3f5787" stroke-width="3"/><line x1="-101.822246" y1="1.339766" x2="101.822246" y2="-1.339766" transform="translate(298.805517 998.234497)" fill="none" stroke="#3f5787" stroke-width="3"/><line x1="-100.482479" y1="0" x2="100.482479" y2="0" transform="translate(897.681091 999.574263)" fill="none" stroke="#3f5787" stroke-width="3"/><line x1="-41.532758" y1="100.482479" x2="41.532758" y2="-100.482479" transform="translate(439.480987 896.412252)" fill="none" stroke="#3f5787" stroke-width="3"/><line x1="-40.192992" y1="-100.482478" x2="40.192991" y2="100.482479" transform="translate(759.685154 899.091784)" fill="none" stroke="#3f5787" stroke-width="3"/><line x1="-119.239209" y1="0" x2="119.239209" y2="0" transform="translate(600.252954 801.288838)" fill="none" stroke="#3f5787" stroke-width="3"/><line x1="50.911123" y1="-143.355003" x2="-50.911122" y2="143.355003" transform="translate(548.002065 542.713926)" fill="none" stroke="#3f5787" stroke-width="3"/><line x1="-103.162011" y1="1.339766" x2="103.162011" y2="-1.339766" transform="translate(597.573421 687.408696)" fill="none" stroke="#3f5787" stroke-width="3"/><line x1="-52.250889" y1="-142.015236" x2="52.250889" y2="142.015237" transform="translate(651 543)" fill="none" stroke="#3f5787" stroke-width="3"/><line x1="49.916575" y1="-24.958287" x2="-49.916575" y2="24.958287" transform="translate(449.980998 225.574107)" fill="none" stroke="#3f5787" stroke-width="3"/><line x1="50.027757" y1="-26.80881" x2="-50.027757" y2="26.80881" transform="translate(149.786354 1026.56395)" fill="none" stroke="#3f5787" stroke-width="3"/><line x1="149.769063" y1="-400.308668" x2="-149.769063" y2="400.308668" transform="translate(250.448853 651.136796)" fill="none" stroke="#3f5787" stroke-width="3"/><line x1="47.14952" y1="-24.96151" x2="-47.149519" y2="24.961511" transform="translate(349 1025)" fill="none" stroke="#3f5787" stroke-width="3"/><line x1="-99.846042" y1="0" x2="99.846042" y2="0" transform="translate(202.374833 1049.596463)" fill="none" stroke="#3f5787" stroke-width="3"/><line x1="48.99852" y1="-24.96151" x2="-48.998521" y2="24.961511" transform="translate(748.754563 1026.483953)" fill="none" stroke="#3f5787" stroke-width="3"/><line x1="49.923021" y1="-24.03701" x2="-49.923021" y2="24.03701" transform="translate(949.371147 1025.559453)" fill="none" stroke="#3f5787" stroke-width="3"/><line x1="98.921541" y1="-0.924501" x2="-98.921541" y2="0.9245" transform="translate(798.677584 1050.520964)" fill="none" stroke="#3f5787" stroke-width="3"/><line x1="-45.035692" y1="24.888146" x2="45.035692" y2="-24.888146" transform="translate(675.103285 825.417144)" fill="none" stroke="#3f5787" stroke-width="3"/><line x1="34.961919" y1="100.145157" x2="-34.961919" y2="-100.145157" transform="translate(665.029512 950.450447)" fill="none" stroke="#3f5787" stroke-width="3"/><line x1="-86.515935" y1="0" x2="86.515934" y2="0" transform="translate(544.736809 850.30529)" fill="none" stroke="#3f5787" stroke-width="3"/></svg>
